<svg id="Capa_1" enable-background="new 0 0 512 512" height="512" viewBox="0 0 512 512" width="512" xmlns="http://www.w3.org/2000/svg"><g><g><path d="m138.481 270.948c-1.583-1.583-1.583-4.16 0-5.743l14.332-14.332c-.603-2.13-2.54-3.699-4.863-3.699h-37.557c-2.803 0-5.075 2.272-5.075 5.075v26.928h41.393z" fill="#fe646f"/></g><g><path d="m145.276 279.178h39.238v-28.232l-13.015-13.015c-1.982-1.982-5.196-1.982-7.178 0l-26.557 26.557c-1.982 1.982-1.982 5.196 0 7.178z" fill="#22b27f"/></g><g><path d="m171.498 237.931c-1.982-1.982-5.196-1.982-7.178 0l-6.88 6.88 6.786 6.786c1.904 1.904 2.973 4.486 2.973 7.178v20.403h17.314v-28.232z" fill="#09a76d"/></g><g><g><g><path d="m226.113 249.298c0-2.239 1.822-4.06 4.06-4.06h37.557c.374 0 .761.067 1.218.211l1.32.417v-20.172c0-2.239 1.822-4.06 4.06-4.06h.526v-14.048c0-2.803-2.272-5.075-5.075-5.075h-37.557c-2.803 0-5.075 2.272-5.075 5.075v15.227h-38.573c-2.803 0-5.075 2.272-5.075 5.075v51.289h42.615v-29.879z" fill="#fe646f"/></g><g><g><path d="m205.226 249.298v29.88h20.887v-29.88c0-2.239 1.822-4.06 4.06-4.06h-20.887c-2.238 0-4.06 1.822-4.06 4.06z" fill="#fd4755"/></g><g><g><path d="m269.78 202.511h-20.887c2.803 0 5.075 2.272 5.075 5.075v37.652h13.762c.374 0 .761.067 1.218.211l1.32.417v-20.172c0-2.239 1.822-4.06 4.06-4.06h.526v-14.048c.001-2.803-2.271-5.075-5.074-5.075z" fill="#fd4755"/></g></g></g><g><path d="m270.269 244.927c-.749-.436-1.609-.704-2.538-.704h-37.557c-2.803 0-5.075 2.272-5.075 5.075v29.88h45.171v-34.251z" fill="#fb2b3a"/></g><g><path d="m297.85 270.948c-1.583-1.583-1.583-4.16 0-5.743l19.112-19.111v-20.401c0-2.803-2.272-5.075-5.075-5.075h-37.557c-2.803 0-5.075 2.272-5.075 5.075v53.484h36.826z" fill="#22b27f"/></g><g><g><path d="m316.962 225.694c0-2.803-2.272-5.075-5.075-5.075h-18.328c2.803 0 5.075 2.272 5.075 5.075v38.728l18.328-18.328z" fill="#09a76d"/></g></g></g><g><g><path d="m356.707 265.206c1.583 1.583 1.583 4.159 0 5.743l-8.23 8.23h44.109v-26.929c0-2.803-2.272-5.075-5.075-5.075h-37.557c-2.803 0-5.075 2.272-5.075 5.075v1.127z" fill="#fe646f"/></g><g><path d="m387.511 247.175h-17.822c2.803 0 5.075 2.272 5.075 5.075v26.928h17.822v-26.928c0-2.803-2.272-5.075-5.075-5.075z" fill="#fd4755"/></g><g><path d="m304.645 279.178h45.268l7.512-7.512c1.982-1.982 1.982-5.196 0-7.178l-26.557-26.557c-1.982-1.982-5.196-1.982-7.178 0l-26.557 26.557c-1.982 1.982-1.982 5.196 0 7.178z" fill="#fb2b3a"/></g><g><path d="m357.425 264.488-26.557-26.557c-1.982-1.982-5.196-1.982-7.178 0l-6.756 6.756 19.802 19.802c1.982 1.982 1.982 5.196 0 7.178l-7.512 7.512h20.689l7.512-7.512c1.982-1.983 1.982-5.197 0-7.179z" fill="#e41f2d"/></g><g><g><path d="m185.139 164.307-20.128 20.128c-1.982 1.982-5.196 1.982-7.178 0l-20.128-20.128c-1.982-1.982-1.982-5.196 0-7.178l20.128-20.128c1.982-1.982 5.196-1.982 7.178 0l20.128 20.128c1.982 1.982 1.982 5.196 0 7.178z" fill="#fe646f"/></g></g><g><path d="m185.139 157.129-20.128-20.128c-1.982-1.982-5.196-1.982-7.178 0l-7.07 7.07 13.058 13.058c1.982 1.982 1.982 5.196 0 7.178l-13.058 13.058 7.07 7.07c1.982 1.982 5.196 1.982 7.178 0l20.128-20.128c1.982-1.982 1.982-5.196 0-7.178z" fill="#fd4755"/></g><g><g><path d="m291.01 56.321-14.667 14.667c-1.982 1.982-5.196 1.982-7.178 0l-14.667-14.667c-1.982-1.982-1.982-5.196 0-7.178l14.667-14.667c1.982-1.982 5.196-1.982 7.178 0l14.667 14.667c1.982 1.983 1.982 5.196 0 7.178z" fill="#22b27f"/></g></g><g><path d="m291.01 49.144-14.667-14.667c-1.982-1.982-5.196-1.982-7.178 0l-4.508 4.508 10.158 10.158c1.982 1.982 1.982 5.196 0 7.178l-10.158 10.159 4.508 4.508c1.982 1.982 5.196 1.982 7.178 0l14.667-14.667c1.982-1.982 1.982-5.195 0-7.177z" fill="#09a76d"/></g><g><g><g><path d="m447.328 216.706-14.667 14.667c-1.982 1.982-5.196 1.982-7.178 0l-14.667-14.667c-1.982-1.982-1.982-5.196 0-7.178l14.667-14.667c1.982-1.982 5.196-1.982 7.178 0l14.667 14.667c1.983 1.982 1.983 5.196 0 7.178z" fill="#fe646f"/></g></g><g><path d="m447.328 209.528-14.667-14.667c-1.982-1.982-5.196-1.982-7.178 0l-5.065 5.065 9.601 9.601c1.982 1.982 1.982 5.196 0 7.178l-9.601 9.601 5.065 5.065c1.982 1.982 5.196 1.982 7.178 0l14.667-14.667c1.983-1.98 1.983-5.194 0-7.176z" fill="#fd4755"/></g><g><g><path d="m101.183 206.555-14.667 14.667c-1.982 1.982-5.196 1.982-7.178 0l-14.667-14.667c-1.982-1.982-1.982-5.196 0-7.178l14.667-14.667c1.982-1.982 5.196-1.982 7.178 0l14.667 14.667c1.982 1.982 1.982 5.196 0 7.178z" fill="#22b27f"/></g></g><g><path d="m101.183 199.377-14.667-14.667c-1.982-1.982-5.196-1.982-7.178 0l-4.506 4.506 10.161 10.161c1.982 1.982 1.982 5.196 0 7.178l-10.161 10.161 4.506 4.506c1.982 1.982 5.196 1.982 7.178 0l14.667-14.667c1.982-1.982 1.982-5.196 0-7.178z" fill="#09a76d"/></g></g></g><path d="m338.515 498v-38.895h-179.126v38.895z" fill="#ffe177"/><path d="m338.515 498v-38.895h-42.456v38.895z" fill="#ffd15b"/><g><path d="m93.534 403.828 24.968-24.969c.44-.44 1.024-.682 1.646-.682s1.207.242 1.646.682l28.006 28.006c.817.818 1.904 1.268 3.061 1.268s2.243-.45 3.061-1.268l28.005-28.006c.44-.439 1.025-.682 1.647-.682s1.207.242 1.646.682l28.006 28.006c.817.818 1.904 1.268 3.061 1.268s2.243-.45 3.061-1.268l28.005-28.006c.44-.44 1.024-.682 1.646-.682s1.207.242 1.646.682l28.006 28.006c.818.818 1.905 1.268 3.061 1.268s2.243-.45 3.061-1.268l28.005-28.006c.44-.44 1.024-.682 1.646-.682s1.207.242 1.646.682l28.006 28.006c.817.818 1.904 1.268 3.061 1.268s2.243-.45 3.061-1.268l28.006-28.006c.44-.44 1.024-.682 1.647-.682.622 0 1.207.242 1.646.682l21.438 21.438.086-.045c.24-2.303.367-4.64.367-7.007v-104.931c0-5.606-4.545-10.151-10.151-10.151h-292.573c-5.606 0-10.151 4.545-10.151 10.151v104.931c0 3.591.291 7.113.836 10.55z" fill="#ffe177"/></g><g><path d="m362.814 288.314v104.931c0 1.035-.031 2.062-.078 3.085l17.47-17.47c.44-.44 1.024-.682 1.647-.682.622 0 1.207.242 1.646.682l21.438 21.438.086-.045c.24-2.303.367-4.64.367-7.007v-104.932c0-5.606-4.545-10.151-10.151-10.151h-42.576c5.607 0 10.151 4.545 10.151 10.151z" fill="#ffd15b"/></g><g><path d="m405.123 399.068-20.916-20.916c-1.3-1.3-3.407-1.3-4.707 0l-28.006 28.006c-1.3 1.3-3.407 1.3-4.707 0l-28.006-28.006c-1.3-1.3-3.407-1.3-4.707 0l-28.006 28.006c-1.3 1.3-3.407 1.3-4.707 0l-28.006-28.006c-1.3-1.3-3.407-1.3-4.707 0l-28.006 28.006c-1.3 1.3-3.407 1.3-4.707 0l-28.006-28.006c-1.3-1.3-3.407-1.3-4.707 0l-28.006 28.006c-1.3 1.3-3.407 1.3-4.707 0l-28.006-28.006c-1.3-1.3-3.407-1.3-4.707 0l-24.599 24.598c4.617 32.43 32.486 57.37 66.192 57.37h179.126c34.971 0 63.654-26.847 66.608-61.052z" fill="#ffc344"/></g><g><path d="m295.939 460.12h42.576c34.971 0 63.655-26.847 66.608-61.053l-20.915-20.915c-1.3-1.3-3.407-1.3-4.707 0l-16.727 16.727c-.872 36.177-30.449 65.241-66.835 65.241z" fill="#f6ab31"/></g><g><path d="m405.391 512h-312.878c-4.142 0-7.5-3.358-7.5-7.5s3.358-7.5 7.5-7.5h312.878c4.142 0 7.5 3.358 7.5 7.5s-3.358 7.5-7.5 7.5z" fill="#ffc344"/></g><g><g><g><path d="m164.912 351.944 22.298-38.621c1.281-2.219-.32-4.993-2.883-4.993h-44.595c-2.562 0-4.164 2.774-2.883 4.993l22.298 38.621c1.281 2.219 4.483 2.219 5.765 0z" fill="#22b27f"/></g><g><path d="m184.327 308.331h-18.45c2.562 0 4.164 2.774 2.883 4.993l-15.955 27.635 6.343 10.986c1.281 2.219 4.484 2.219 5.765 0l22.298-38.621c1.279-2.219-.322-4.993-2.884-4.993z" fill="#09a76d"/></g><g><path d="m253.884 351.944 22.298-38.621c1.281-2.219-.32-4.993-2.883-4.993h-44.595c-2.562 0-4.164 2.774-2.883 4.993l22.298 38.621c1.281 2.219 4.484 2.219 5.765 0z" fill="#fb2b3a"/></g><g><path d="m273.299 308.331h-18.45c2.562 0 4.164 2.774 2.883 4.993l-15.955 27.635 6.343 10.986c1.281 2.219 4.484 2.219 5.765 0l22.298-38.621c1.28-2.219-.322-4.993-2.884-4.993z" fill="#e41f2d"/></g><g><path d="m342.856 351.944 22.298-38.621c1.281-2.219-.32-4.993-2.883-4.993h-44.595c-2.562 0-4.164 2.774-2.883 4.993l22.298 38.621c1.281 2.219 4.484 2.219 5.765 0z" fill="#22b27f"/></g><g><path d="m362.271 308.331h-18.45c2.562 0 4.164 2.774 2.883 4.993l-15.955 27.635 6.342 10.986c1.281 2.219 4.484 2.219 5.765 0l22.298-38.621c1.281-2.219-.32-4.993-2.883-4.993z" fill="#09a76d"/></g></g></g></g><g><g><g><g><path d="m218.375 122.562-99.967-26.786c-8.543-2.289-11.404-12.968-5.151-19.222l73.181-73.181c6.254-6.254 16.933-3.393 19.222 5.151l26.786 99.967c2.289 8.542-5.528 16.36-14.071 14.071z" fill="#ffe177"/></g><g><path d="m232.446 108.49-26.786-99.967c-2.289-8.543-12.968-11.404-19.222-5.151l-6.899 6.899 26.318 98.219c1.019 3.803.032 7.46-2.127 10.147l14.645 3.924c8.543 2.29 16.36-5.528 14.071-14.071z" fill="#ffd15b"/></g></g></g><g><g><path d="m310.997 185.865 99.967-26.786c8.543-2.289 11.404-12.968 5.151-19.222l-73.181-73.181c-6.254-6.254-16.933-3.393-19.222 5.151l-26.786 99.967c-2.29 8.543 5.528 16.361 14.071 14.071z" fill="#ffe177"/></g><g><path d="m416.115 139.857-73.181-73.181c-6.254-6.254-16.933-3.393-19.222 5.15l-3.686 13.757 64.564 64.564c4.614 4.614 4.254 11.627.325 15.912l26.05-6.98c8.542-2.289 11.404-12.968 5.15-19.222z" fill="#ffd15b"/></g></g></g><g><circle cx="175.373" cy="54" fill="#ffc344" r="7.5"/></g><g><circle cx="182.263" cy="81.57" fill="#ffc344" r="7.5"/></g><g><circle cx="154.693" cy="74.68" fill="#ffc344" r="7.5"/></g><g><circle cx="374.683" cy="137.98" fill="#ffc344" r="7.5"/></g><g><circle cx="353.993" cy="117.3" fill="#ffc344" r="7.5"/></g><g><circle cx="347.103" cy="144.88" fill="#ffc344" r="7.5"/></g></g></svg>