<?xml version="1.0" encoding="UTF-8"?>
<svg xmlns="http://www.w3.org/2000/svg" xmlns:xlink="http://www.w3.org/1999/xlink" version="1.1" id="Capa_1" x="0px" y="0px" viewBox="0 0 512 512" style="enable-background:new 0 0 512 512;" xml:space="preserve" width="512" height="512">
<g>
	<path style="fill:#FE646F;" d="M140.228,274.42c-1.56-1.56-1.56-4.098,0-5.657l14.119-14.119c-0.594-2.098-2.502-3.644-4.79-3.644&#10;&#9;&#9;h-36.999c-2.761,0-5,2.239-5,5v26.528h40.778L140.228,274.42z"/>
	<path style="fill:none;stroke:#000000;stroke-width:15;stroke-linecap:round;stroke-linejoin:round;stroke-miterlimit:10;" d="&#10;&#9;&#9;M153.939,253.639c-0.845-1.564-2.479-2.639-4.382-2.639h-36.999c-2.761,0-5,2.239-5,5v25.528"/>
	<path style="fill:#22B27F;" d="M146.922,282.528h38.655v-27.812l-12.822-12.822c-1.953-1.953-5.118-1.953-7.071,0l-26.162,26.162&#10;&#9;&#9;c-1.953,1.953-1.953,5.118,0,7.071L146.922,282.528z"/>
	<path style="fill:#09A76D;" d="M172.754,241.894c-1.953-1.953-5.118-1.953-7.071,0l-6.778,6.778l6.685,6.685&#10;&#9;&#9;c1.875,1.875,2.929,4.419,2.929,7.071v20.099h17.057v-27.812L172.754,241.894z"/>
	<path style="fill:none;stroke:#000000;stroke-width:15;stroke-linecap:round;stroke-linejoin:round;stroke-miterlimit:10;" d="&#10;&#9;&#9;M184.576,253.716l-11.822-11.822c-1.953-1.953-5.118-1.953-7.071,0l-26.162,26.162c-1.953,1.953-1.953,5.118,0,7.071l6.4,6.4"/>
	<g>
		<g>
			<path style="fill:#FE646F;" d="M226.557,253.092c0-2.206,1.794-4,4-4h36.999c0.369,0,0.75,0.066,1.2,0.208l1.301,0.411v-19.872&#10;&#9;&#9;&#9;&#9;c0-2.206,1.794-4,4-4h0.518V212c0-2.761-2.239-5-5-5h-36.999c-2.761,0-5,2.239-5,5v15.001h-38c-2.761,0-5,2.239-5,5v50.527&#10;&#9;&#9;&#9;&#9;h41.981V253.092z"/>
			<g>
				<path style="fill:#FD4755;" d="M205.981,253.092v29.436h20.576v-29.436c0-2.206,1.794-4,4-4h-20.576&#10;&#9;&#9;&#9;&#9;&#9;C207.775,249.092,205.981,250.887,205.981,253.092z"/>
				<g>
					<path style="fill:#FD4755;" d="M269.575,207h-20.576c2.761,0,5,2.239,5,5v37.092h13.557c0.369,0,0.75,0.066,1.2,0.208&#10;&#9;&#9;&#9;&#9;&#9;&#9;l1.301,0.411v-19.872c0-2.206,1.794-4,4-4h0.518V212C274.575,209.239,272.337,207,269.575,207z"/>
				</g>
			</g>
			<path style="fill:none;stroke:#000000;stroke-width:15;stroke-linecap:round;stroke-linejoin:round;stroke-miterlimit:10;" d="&#10;&#9;&#9;&#9;&#9;M274.575,224.839V212c0-2.761-2.239-5-5-5h-36.999c-2.761,0-5,2.239-5,5v15.001h-38c-2.761,0-5,2.239-5,5v49.527h40.981"/>
			<path style="fill:#FB2B3A;" d="M270.057,248.786c-0.738-0.43-1.585-0.694-2.5-0.694h-36.999c-2.761,0-5,2.239-5,5v29.436h44.5&#10;&#9;&#9;&#9;&#9;V248.786z"/>
			<path style="fill:none;stroke:#000000;stroke-width:15;stroke-linecap:round;stroke-linejoin:round;stroke-miterlimit:10;" d="&#10;&#9;&#9;&#9;&#9;M269.057,248.347c-0.477-0.151-0.974-0.255-1.5-0.255h-36.999c-2.761,0-5,2.239-5,5v28.435"/>
			<path style="fill:#22B27F;" d="M297.228,274.42c-1.56-1.56-1.56-4.098,0-5.657l18.828-18.827v-20.097c0-2.761-2.239-5-5-5&#10;&#9;&#9;&#9;&#9;h-36.999c-2.761,0-5,2.239-5,5v52.689h36.279L297.228,274.42z"/>
			<g>
				<path style="fill:#09A76D;" d="M316.056,229.839c0-2.761-2.239-5-5-5H293c2.761,0,5,2.239,5,5v38.153l18.056-18.055V229.839z"/>
			</g>
			<path style="fill:none;stroke:#000000;stroke-width:15;stroke-linecap:round;stroke-linejoin:round;stroke-miterlimit:10;" d="&#10;&#9;&#9;&#9;&#9;M316.056,248.522v-18.683c0-2.761-2.239-5-5-5h-36.999c-2.761,0-5,2.239-5,5v51.689"/>
		</g>
		<g>
			<path style="fill:#FE646F;" d="M355.21,268.763c1.559,1.56,1.559,4.098,0,5.657l-8.107,8.107h43.453V256c0-2.761-2.239-5-5-5&#10;&#9;&#9;&#9;&#9;h-36.999c-2.761,0-5,2.239-5,5v1.11L355.21,268.763z"/>
			<path style="fill:#FD4755;" d="M385.556,251h-17.557c2.761,0,5,2.239,5,5v26.528h17.557V256&#10;&#9;&#9;&#9;&#9;C390.556,253.239,388.317,251,385.556,251z"/>
			<path style="fill:none;stroke:#000000;stroke-width:15;stroke-linecap:round;stroke-linejoin:round;stroke-miterlimit:10;" d="&#10;&#9;&#9;&#9;&#9;M390.556,281.528V256c0-2.761-2.239-5-5-5h-36.999c-2.667,0-4.826,2.094-4.972,4.724"/>
			<path style="fill:#FB2B3A;" d="M303.922,282.528h44.595l7.4-7.4c1.953-1.953,1.953-5.118,0-7.071l-26.162-26.162&#10;&#9;&#9;&#9;&#9;c-1.953-1.953-5.118-1.953-7.071,0l-26.162,26.162c-1.953,1.953-1.953,5.118,0,7.071L303.922,282.528z"/>
			<path style="fill:#E41F2D;" d="M355.917,268.056l-26.162-26.162c-1.953-1.953-5.118-1.953-7.071,0l-6.655,6.655l19.507,19.507&#10;&#9;&#9;&#9;&#9;c1.953,1.953,1.953,5.118,0,7.071l-7.4,7.4h20.381l7.4-7.4C357.869,273.175,357.869,270.009,355.917,268.056z"/>
			<path style="fill:none;stroke:#000000;stroke-width:15;stroke-linecap:round;stroke-linejoin:round;stroke-miterlimit:10;" d="&#10;&#9;&#9;&#9;&#9;M302.921,281.528h46.595l6.4-6.4c1.953-1.953,1.953-5.118,0-7.071l-26.162-26.162c-1.953-1.953-5.118-1.953-7.071,0&#10;&#9;&#9;&#9;&#9;l-26.162,26.162c-1.953,1.953-1.953,5.118,0,7.071L302.921,281.528z"/>
			<g>
				<path style="fill:#FE646F;" d="M186.193,169.364l-19.829,19.829c-1.953,1.953-5.118,1.953-7.071,0l-19.829-19.829&#10;&#9;&#9;&#9;&#9;&#9;c-1.953-1.953-1.953-5.118,0-7.071l19.829-19.829c1.953-1.953,5.118-1.953,7.071,0l19.829,19.829&#10;&#9;&#9;&#9;&#9;&#9;C188.145,164.246,188.145,167.411,186.193,169.364z"/>
			</g>
			<path style="fill:#FD4755;" d="M186.193,162.293l-19.829-19.829c-1.953-1.953-5.118-1.953-7.071,0l-6.964,6.964l12.864,12.864&#10;&#9;&#9;&#9;&#9;c1.953,1.953,1.953,5.118,0,7.071l-12.864,12.864l6.964,6.964c1.953,1.953,5.118,1.953,7.071,0l19.829-19.829&#10;&#9;&#9;&#9;&#9;C188.145,167.411,188.145,164.246,186.193,162.293z"/>
			<g>
				<path style="fill:none;stroke:#000000;stroke-width:15;stroke-linecap:round;stroke-linejoin:round;stroke-miterlimit:10;" d="&#10;&#9;&#9;&#9;&#9;&#9;M186.193,169.364l-19.829,19.829c-1.953,1.953-5.118,1.953-7.071,0l-19.829-19.829c-1.953-1.953-1.953-5.118,0-7.071&#10;&#9;&#9;&#9;&#9;&#9;l19.829-19.829c1.953-1.953,5.118-1.953,7.071,0l19.829,19.829C188.145,164.246,188.145,167.411,186.193,169.364z"/>
			</g>
			<g>
				<path style="fill:#22B27F;" d="M290.489,62.984l-14.449,14.449c-1.953,1.953-5.118,1.953-7.071,0l-14.449-14.449&#10;&#9;&#9;&#9;&#9;&#9;c-1.953-1.953-1.953-5.118,0-7.071l14.449-14.449c1.953-1.953,5.118-1.953,7.071,0l14.449,14.449&#10;&#9;&#9;&#9;&#9;&#9;C292.442,57.866,292.442,61.032,290.489,62.984z"/>
			</g>
			<path style="fill:#09A76D;" d="M290.489,55.913l-14.449-14.449c-1.953-1.953-5.118-1.953-7.071,0l-4.441,4.441l10.007,10.007&#10;&#9;&#9;&#9;&#9;c1.953,1.953,1.953,5.118,0,7.071l-10.007,10.007l4.441,4.441c1.953,1.953,5.118,1.953,7.071,0l14.449-14.449&#10;&#9;&#9;&#9;&#9;C292.442,61.032,292.442,57.866,290.489,55.913z"/>
			<g>
				<path style="fill:none;stroke:#000000;stroke-width:15;stroke-linecap:round;stroke-linejoin:round;stroke-miterlimit:10;" d="&#10;&#9;&#9;&#9;&#9;&#9;M290.489,62.984l-14.449,14.449c-1.953,1.953-5.118,1.953-7.071,0l-14.449-14.449c-1.953-1.953-1.953-5.118,0-7.071&#10;&#9;&#9;&#9;&#9;&#9;l14.449-14.449c1.953-1.953,5.118-1.953,7.071,0l14.449,14.449C292.442,57.866,292.442,61.032,290.489,62.984z"/>
			</g>
			<g>
				<g>
					<path style="fill:#FE646F;" d="M444.484,220.984l-14.449,14.449c-1.953,1.953-5.118,1.953-7.071,0l-14.449-14.449&#10;&#9;&#9;&#9;&#9;&#9;&#9;c-1.953-1.953-1.953-5.118,0-7.071l14.449-14.449c1.953-1.953,5.118-1.953,7.071,0l14.449,14.449&#10;&#9;&#9;&#9;&#9;&#9;&#9;C446.437,215.866,446.437,219.032,444.484,220.984z"/>
				</g>
				<path style="fill:#FD4755;" d="M444.484,213.913l-14.449-14.449c-1.953-1.953-5.118-1.953-7.071,0l-4.99,4.99l9.458,9.458&#10;&#9;&#9;&#9;&#9;&#9;c1.953,1.953,1.953,5.118,0,7.071l-9.458,9.458l4.99,4.99c1.953,1.953,5.118,1.953,7.071,0l14.449-14.449&#10;&#9;&#9;&#9;&#9;&#9;C446.437,219.032,446.437,215.866,444.484,213.913z"/>
				<g>
					<path style="fill:none;stroke:#000000;stroke-width:15;stroke-linecap:round;stroke-linejoin:round;stroke-miterlimit:10;" d="&#10;&#9;&#9;&#9;&#9;&#9;&#9;M444.484,220.984l-14.449,14.449c-1.953,1.953-5.118,1.953-7.071,0l-14.449-14.449c-1.953-1.953-1.953-5.118,0-7.071&#10;&#9;&#9;&#9;&#9;&#9;&#9;l14.449-14.449c1.953-1.953,5.118-1.953,7.071,0l14.449,14.449C446.437,215.866,446.437,219.032,444.484,220.984z"/>
				</g>
				<g>
					<path style="fill:#22B27F;" d="M103.484,210.984l-14.449,14.449c-1.953,1.953-5.118,1.953-7.071,0l-14.449-14.449&#10;&#9;&#9;&#9;&#9;&#9;&#9;c-1.953-1.953-1.953-5.118,0-7.071l14.449-14.449c1.953-1.953,5.118-1.953,7.071,0l14.449,14.449&#10;&#9;&#9;&#9;&#9;&#9;&#9;C105.437,205.866,105.437,209.032,103.484,210.984z"/>
				</g>
				<path style="fill:#09A76D;" d="M103.484,203.913l-14.449-14.449c-1.953-1.953-5.118-1.953-7.071,0l-4.439,4.439l10.01,10.01&#10;&#9;&#9;&#9;&#9;&#9;c1.953,1.953,1.953,5.118,0,7.071l-10.01,10.01l4.439,4.439c1.953,1.953,5.118,1.953,7.071,0l14.449-14.449&#10;&#9;&#9;&#9;&#9;&#9;C105.437,209.032,105.437,205.866,103.484,203.913z"/>
				<g>
					<path style="fill:none;stroke:#000000;stroke-width:15;stroke-linecap:round;stroke-linejoin:round;stroke-miterlimit:10;" d="&#10;&#9;&#9;&#9;&#9;&#9;&#9;M103.484,210.984l-14.449,14.449c-1.953,1.953-5.118,1.953-7.071,0l-14.449-14.449c-1.953-1.953-1.953-5.118,0-7.071&#10;&#9;&#9;&#9;&#9;&#9;&#9;l14.449-14.449c1.953-1.953,5.118-1.953,7.071,0l14.449,14.449C105.437,205.866,105.437,209.032,103.484,210.984z"/>
				</g>
			</g>
		</g>
		<polygon style="fill:#FFE177;" points="337.288,459.78 160.825,459.78 160.825,504.5 337.288,504.5 337.288,459.78 &#9;&#9;"/>
		<polygon style="fill:#FFD15B;" points="337.288,459.78 295.463,459.78 295.463,504.5 337.288,504.5 337.288,459.78 &#9;&#9;"/>
		
			<line style="fill:none;stroke:#000000;stroke-width:15;stroke-linecap:round;stroke-linejoin:round;stroke-miterlimit:10;" x1="337.288" y1="504.5" x2="337.288" y2="460.78"/>
		
			<line style="fill:none;stroke:#000000;stroke-width:15;stroke-linecap:round;stroke-linejoin:round;stroke-miterlimit:10;" x1="160.825" y1="460.78" x2="160.825" y2="504.5"/>
		<path style="fill:#FFE177;" d="M337.288,460.78H160.825c-36.385,0-65.882-29.496-65.882-65.882V291.528c0-5.523,4.477-10,10-10&#10;&#9;&#9;&#9;H393.17c5.523,0,10,4.477,10,10v103.371C403.17,431.284,373.674,460.78,337.288,460.78z"/>
		<path style="fill:#FFD15B;" d="M393.17,281.528h-41.943c5.523,0,10,4.477,10,10v103.371c0,36.385-29.496,65.882-65.882,65.882&#10;&#9;&#9;&#9;h41.943c36.385,0,65.882-29.496,65.882-65.882V291.528C403.17,286.005,398.693,281.528,393.17,281.528z"/>
		<path style="fill:#FFC344;" d="M402.906,400.635l-20.605-20.605c-1.281-1.281-3.357-1.281-4.637,0l-27.59,27.59&#10;&#9;&#9;&#9;c-1.281,1.281-3.357,1.281-4.637,0l-27.59-27.59c-1.281-1.281-3.357-1.281-4.637,0l-27.589,27.59&#10;&#9;&#9;&#9;c-1.281,1.281-3.357,1.281-4.637,0l-27.59-27.59c-1.281-1.281-3.357-1.281-4.637,0l-27.589,27.59&#10;&#9;&#9;&#9;c-1.281,1.281-3.357,1.281-4.637,0l-27.59-27.59c-1.281-1.281-3.357-1.281-4.637,0l-27.589,27.59&#10;&#9;&#9;&#9;c-1.281,1.281-3.357,1.281-4.637,0l-27.59-27.59c-1.281-1.281-3.357-1.281-4.637,0l-24.233,24.233&#10;&#9;&#9;&#9;c4.548,31.948,32.003,56.517,65.208,56.517h176.463C371.739,460.78,399.997,434.332,402.906,400.635z"/>
		<path style="fill:#F6AB31;" d="M295.345,460.78h41.943c34.451,0,62.708-26.448,65.617-60.145l-20.605-20.605&#10;&#9;&#9;&#9;c-1.281-1.281-3.357-1.281-4.637,0l-16.478,16.478C360.328,432.147,331.19,460.78,295.345,460.78z"/>
		<path style="fill:none;stroke:#000000;stroke-width:15;stroke-linecap:round;stroke-linejoin:round;stroke-miterlimit:10;" d="&#10;&#9;&#9;&#9;M402.906,400.635l-20.605-20.605c-1.281-1.281-3.357-1.281-4.637,0l-27.59,27.59c-1.281,1.281-3.357,1.281-4.637,0l-27.59-27.59&#10;&#9;&#9;&#9;c-1.281-1.281-3.357-1.281-4.637,0l-27.589,27.59c-1.281,1.281-3.357,1.281-4.637,0l-27.59-27.59&#10;&#9;&#9;&#9;c-1.281-1.281-3.357-1.281-4.637,0l-27.589,27.59c-1.281,1.281-3.357,1.281-4.637,0l-27.59-27.59&#10;&#9;&#9;&#9;c-1.281-1.281-3.357-1.281-4.637,0l-27.589,27.59c-1.281,1.281-3.357,1.281-4.637,0l-27.59-27.59&#10;&#9;&#9;&#9;c-1.281-1.281-3.357-1.281-4.637,0l-24.233,24.233"/>
		<path style="fill:none;stroke:#000000;stroke-width:15;stroke-linecap:round;stroke-linejoin:round;stroke-miterlimit:10;" d="&#10;&#9;&#9;&#9;M221,460.78h116.288c36.385,0,65.882-29.496,65.882-65.882V291.528c0-5.523-4.477-10-10-10H104.943c-5.523,0-10,4.477-10,10V309"/>
		<path style="fill:none;stroke:#000000;stroke-width:15;stroke-linecap:round;stroke-linejoin:round;stroke-miterlimit:10;" d="&#10;&#9;&#9;&#9;M94.943,344v50.898c0,36.385,29.496,65.882,65.882,65.882H186"/>
		
			<line style="fill:none;stroke:#000000;stroke-width:15;stroke-linecap:round;stroke-linejoin:round;stroke-miterlimit:10;" x1="94.943" y1="504.5" x2="403.17" y2="504.5"/>
		<g>
			<g>
				<path style="fill:#22B27F;" d="M166.266,354.212l21.966-38.047c1.262-2.186-0.316-4.919-2.84-4.919H141.46&#10;&#9;&#9;&#9;&#9;&#9;c-2.524,0-4.102,2.733-2.84,4.919l21.966,38.047C161.848,356.398,165.004,356.398,166.266,354.212z"/>
				<path style="fill:#09A76D;" d="M185.392,311.247h-18.176c2.524,0,4.102,2.732,2.84,4.918l-15.718,27.224l6.248,10.822&#10;&#9;&#9;&#9;&#9;&#9;c1.262,2.186,4.417,2.186,5.679,0l21.966-38.047C189.494,313.98,187.916,311.247,185.392,311.247z"/>
				<path style="fill:#FB2B3A;" d="M253.915,354.212l21.966-38.047c1.262-2.186-0.316-4.919-2.84-4.919h-43.932&#10;&#9;&#9;&#9;&#9;&#9;c-2.524,0-4.102,2.733-2.84,4.919l21.966,38.047C249.498,356.398,252.653,356.398,253.915,354.212z"/>
				<path style="fill:#E41F2D;" d="M273.042,311.247h-18.176c2.524,0,4.102,2.732,2.84,4.918l-15.718,27.224l6.248,10.822&#10;&#9;&#9;&#9;&#9;&#9;c1.262,2.186,4.417,2.186,5.679,0l21.966-38.047C277.144,313.98,275.566,311.247,273.042,311.247z"/>
				<path style="fill:#22B27F;" d="M341.565,354.212l21.966-38.047c1.262-2.186-0.316-4.919-2.84-4.919h-43.932&#10;&#9;&#9;&#9;&#9;&#9;c-2.524,0-4.102,2.733-2.84,4.919l21.966,38.047C337.148,356.398,340.303,356.398,341.565,354.212z"/>
				<path style="fill:#09A76D;" d="M360.691,311.247h-18.176c2.524,0,4.102,2.732,2.84,4.918l-15.718,27.224l6.248,10.822&#10;&#9;&#9;&#9;&#9;&#9;c1.262,2.186,4.417,2.186,5.679,0l21.966-38.047C364.793,313.98,363.216,311.247,360.691,311.247z"/>
			</g>
		</g>
		<g>
			<g>
				<path style="fill:none;stroke:#000000;stroke-width:15;stroke-linecap:round;stroke-linejoin:round;stroke-miterlimit:10;" d="&#10;&#9;&#9;&#9;&#9;&#9;M166.266,354.212l21.966-38.047c1.262-2.186-0.316-4.919-2.84-4.919H141.46c-2.524,0-4.102,2.733-2.84,4.919l21.966,38.047&#10;&#9;&#9;&#9;&#9;&#9;C161.848,356.398,165.004,356.398,166.266,354.212z"/>
				<path style="fill:none;stroke:#000000;stroke-width:15;stroke-linecap:round;stroke-linejoin:round;stroke-miterlimit:10;" d="&#10;&#9;&#9;&#9;&#9;&#9;M253.915,354.212l21.966-38.047c1.262-2.186-0.316-4.919-2.84-4.919h-43.932c-2.524,0-4.102,2.733-2.84,4.919l21.966,38.047&#10;&#9;&#9;&#9;&#9;&#9;C249.498,356.398,252.653,356.398,253.915,354.212z"/>
				<path style="fill:none;stroke:#000000;stroke-width:15;stroke-linecap:round;stroke-linejoin:round;stroke-miterlimit:10;" d="&#10;&#9;&#9;&#9;&#9;&#9;M341.565,354.212l21.966-38.047c1.262-2.186-0.316-4.919-2.84-4.919h-43.932c-2.524,0-4.102,2.733-2.84,4.919l21.966,38.047&#10;&#9;&#9;&#9;&#9;&#9;C337.148,356.398,340.303,356.398,341.565,354.212z"/>
			</g>
		</g>
	</g>
	<g>
		<g>
			<g>
				<path style="fill:#FFE177;" d="M218.934,128.24l-98.481-26.388c-8.416-2.255-11.235-12.775-5.074-18.936l72.093-72.093&#10;&#9;&#9;&#9;&#9;&#9;c6.161-6.161,16.681-3.342,18.936,5.074l26.388,98.481C235.051,122.793,227.35,130.495,218.934,128.24z"/>
				<path style="fill:#FFD15B;" d="M232.796,114.377l-26.388-98.481c-2.255-8.416-12.775-11.235-18.936-5.074l-6.796,6.796&#10;&#9;&#9;&#9;&#9;&#9;l25.926,96.759c1.004,3.746,0.032,7.349-2.095,9.997l14.427,3.866C227.35,130.495,235.051,122.793,232.796,114.377z"/>
				<path style="fill:none;stroke:#000000;stroke-width:15;stroke-linecap:round;stroke-linejoin:round;stroke-miterlimit:10;" d="&#10;&#9;&#9;&#9;&#9;&#9;M218.934,128.24l-98.481-26.388c-8.416-2.255-11.235-12.775-5.074-18.936l72.093-72.093c6.161-6.161,16.681-3.342,18.936,5.074&#10;&#9;&#9;&#9;&#9;&#9;l26.388,98.481C235.051,122.793,227.35,130.495,218.934,128.24z"/>
				<g>
					
						<line style="fill:none;stroke:#000000;stroke-width:15;stroke-linecap:round;stroke-linejoin:round;stroke-miterlimit:10;" x1="156.199" y1="81.07" x2="156.199" y2="81.07"/>
					
						<line style="fill:none;stroke:#000000;stroke-width:15;stroke-linecap:round;stroke-linejoin:round;stroke-miterlimit:10;" x1="183.363" y1="87.861" x2="183.363" y2="87.861"/>
					
						<line style="fill:none;stroke:#000000;stroke-width:15;stroke-linecap:round;stroke-linejoin:round;stroke-miterlimit:10;" x1="176.572" y1="60.697" x2="176.572" y2="60.697"/>
				</g>
			</g>
		</g>
		<g>
			<path style="fill:#FFE177;" d="M310.179,190.602l98.481-26.388c8.416-2.255,11.235-12.775,5.074-18.936l-72.093-72.093&#10;&#9;&#9;&#9;&#9;c-6.161-6.161-16.681-3.342-18.936,5.074l-26.388,98.481C294.062,185.156,301.763,192.857,310.179,190.602z"/>
			<path style="fill:#FFD15B;" d="M413.735,145.278l-72.093-72.093c-6.161-6.161-16.681-3.342-18.936,5.074l-3.631,13.552&#10;&#9;&#9;&#9;&#9;l63.604,63.604c4.545,4.545,4.191,11.454,0.32,15.675l25.663-6.876C417.077,161.959,419.896,151.439,413.735,145.278z"/>
			<path style="fill:none;stroke:#000000;stroke-width:15;stroke-linecap:round;stroke-linejoin:round;stroke-miterlimit:10;" d="&#10;&#9;&#9;&#9;&#9;M303.102,151.419l-6.785,25.321c-2.255,8.416,5.446,16.117,13.862,13.862l98.481-26.388c8.416-2.255,11.235-12.775,5.074-18.936&#10;&#9;&#9;&#9;&#9;l-72.093-72.093c-6.161-6.161-16.681-3.342-18.936,5.074L312.164,117.6"/>
			<g>
				
					<line style="fill:none;stroke:#000000;stroke-width:15;stroke-linecap:round;stroke-linejoin:round;stroke-miterlimit:10;" x1="372.915" y1="143.433" x2="372.915" y2="143.433"/>
				
					<line style="fill:none;stroke:#000000;stroke-width:15;stroke-linecap:round;stroke-linejoin:round;stroke-miterlimit:10;" x1="345.75" y1="150.224" x2="345.75" y2="150.224"/>
				
					<line style="fill:none;stroke:#000000;stroke-width:15;stroke-linecap:round;stroke-linejoin:round;stroke-miterlimit:10;" x1="352.541" y1="123.06" x2="352.541" y2="123.06"/>
			</g>
		</g>
	</g>
</g>















</svg>
